<?xml version="1.0" standalone="no"?>
<!DOCTYPE svg PUBLIC "-//W3C//DTD SVG 20010904//EN"
 "http://www.w3.org/TR/2001/REC-SVG-20010904/DTD/svg10.dtd">
<svg version="1.0" xmlns="http://www.w3.org/2000/svg"
 width="486.000000pt" height="172.000000pt" viewBox="0 0 486.000000 172.000000"
 preserveAspectRatio="xMidYMid meet">
<metadata>
Created by potrace 1.16, written by Peter Selinger 2001-2019
</metadata>
<g transform="translate(0.000000,172.000000) scale(0.100000,-0.100000)"
fill="#000000" stroke="none">
<path d="M910 1391 c-88 -29 -172 -102 -211 -186 -16 -33 -29 -66 -29 -73 0
-14 -40 -32 -70 -32 -11 0 -44 -9 -75 -21 -77 -29 -155 -102 -191 -181 -25
-55 -28 -75 -29 -158 0 -117 19 -164 100 -249 71 -75 124 -98 243 -107 l92 -7
0 155 c0 170 1 168 -60 168 -49 0 -60 -21 -60 -116 0 -61 -3 -84 -12 -84 -7 0
-36 11 -65 24 -182 85 -171 375 17 441 24 9 77 18 118 22 83 7 81 5 102 105
22 110 103 186 209 195 81 8 136 -14 194 -76 52 -56 77 -124 77 -212 0 -31 3
-71 6 -88 6 -28 10 -31 43 -31 50 0 104 -39 131 -95 30 -62 26 -155 -10 -203
-39 -52 -110 -82 -197 -82 l-73 0 0 246 0 247 -51 -6 c-29 -4 -53 -8 -55 -10
-2 -2 -7 -138 -11 -301 l-6 -298 149 4 c173 4 211 16 293 93 67 62 94 128 94
225 0 115 -46 200 -148 270 -39 27 -43 33 -49 84 -18 154 -123 294 -245 326
-53 13 -192 21 -221 11z"/>
<path d="M1908 1360 c-114 -34 -174 -198 -117 -318 57 -117 230 -141 320 -45
62 67 72 163 26 261 -24 53 -68 88 -127 101 -52 12 -65 12 -102 1z m113 -86
c79 -40 78 -208 -2 -249 -48 -25 -87 -19 -125 19 -32 32 -34 37 -34 106 0 69
2 74 34 106 39 39 77 44 127 18z"/>
<path d="M3347 1360 c-85 -26 -141 -114 -141 -220 0 -106 56 -178 154 -199 74
-16 124 0 178 55 85 89 27 119 -71 38 -56 -47 -140 -21 -167 51 -26 68 0 164
51 190 50 26 86 19 131 -25 62 -61 112 -53 85 13 -33 78 -134 123 -220 97z"/>
<path d="M4292 1318 c-6 -6 -12 -22 -12 -35 0 -16 -6 -23 -19 -23 -11 0 -23
-5 -26 -10 -10 -16 4 -48 24 -55 15 -5 19 -22 25 -112 4 -59 12 -113 18 -120
6 -7 28 -18 50 -24 33 -8 44 -7 64 6 37 24 29 59 -13 63 l-33 3 0 94 0 94 28
3 c21 2 27 8 27 28 0 20 -6 26 -30 30 -25 4 -29 10 -30 35 0 26 -4 30 -30 33
-17 2 -36 -3 -43 -10z"/>
<path d="M2655 1263 c-63 -16 -105 -81 -105 -163 0 -57 15 -93 54 -129 55 -51
182 -34 216 29 9 17 7 22 -15 32 -20 9 -28 8 -43 -5 -31 -29 -74 -31 -105 -7
-15 12 -27 30 -27 41 0 18 8 19 106 19 l107 0 -6 39 c-14 108 -89 167 -182
144z m84 -87 c30 -32 20 -46 -34 -46 -74 0 -91 15 -58 52 23 25 65 23 92 -6z"/>
<path d="M2997 1256 c-21 -11 -34 -13 -47 -6 -10 6 -30 10 -44 10 l-26 0 0
-160 0 -160 39 0 39 0 4 109 c3 118 17 151 63 151 45 0 55 -27 55 -148 l0
-112 40 0 40 0 0 93 c-1 119 -12 174 -42 203 -31 31 -84 40 -121 20z"/>
<path d="M4024 1256 c-35 -16 -74 -61 -74 -87 0 -34 46 -74 107 -93 78 -24 88
-34 67 -57 -23 -26 -56 -24 -100 6 -41 28 -55 30 -71 14 -27 -27 28 -85 94
-100 93 -20 192 61 162 133 -14 35 -48 54 -111 63 -55 8 -77 27 -58 50 17 21
57 19 87 -5 30 -23 56 -26 72 -6 25 30 -65 97 -129 96 -8 -1 -29 -7 -46 -14z"/>
<path d="M2210 1050 l0 -210 46 0 47 0 -5 65 c-3 36 -3 65 1 65 3 0 15 -7 25
-15 23 -18 79 -20 109 -4 65 34 93 96 82 180 -14 102 -74 143 -176 123 -27 -6
-52 -7 -55 -2 -3 4 -21 8 -40 8 l-34 0 0 -210z m190 140 c21 -11 40 -60 40
-102 0 -32 -47 -88 -73 -88 -8 0 -26 9 -41 21 -23 18 -26 28 -26 77 0 81 44
122 100 92z"/>
<path d="M3660 1222 c-69 -69 -64 -179 10 -246 36 -33 45 -36 99 -36 70 0 104
22 132 84 24 52 24 100 0 152 -29 64 -62 84 -139 84 -61 0 -66 -2 -102 -38z
m159 -48 c33 -42 25 -131 -13 -156 -6 -4 -25 -8 -43 -8 -42 0 -63 30 -63 91 0
88 72 132 119 73z"/>
<path d="M859 833 c-24 -6 -29 -53 -29 -265 l0 -188 62 0 61 0 -6 222 c-4 121
-8 222 -9 223 -7 6 -65 12 -79 8z"/>
<path d="M1905 779 c-81 -20 -137 -107 -137 -214 0 -127 76 -205 202 -205 64
0 109 19 143 59 63 75 5 115 -66 46 -107 -104 -244 35 -178 182 22 48 45 63
96 63 29 0 45 -8 78 -40 30 -30 48 -40 67 -38 21 2 25 8 23 31 -6 83 -121 142
-228 116z"/>
<path d="M2490 677 c0 -52 3 -142 7 -200 l6 -107 32 0 32 0 6 107 c4 58 7 148
7 200 l0 93 -45 0 -45 0 0 -93z"/>
<path d="M3270 677 c0 -52 3 -142 7 -200 l6 -107 32 0 32 0 6 107 c4 58 7 148
7 200 l0 93 -45 0 -45 0 0 -93z"/>
<path d="M3750 735 c-6 -14 -10 -33 -10 -41 0 -8 -6 -14 -14 -14 -25 0 -31
-41 -8 -59 16 -13 21 -33 26 -115 6 -109 17 -130 70 -144 47 -13 80 -1 84 31
3 23 0 27 -21 27 -36 0 -45 17 -52 107 l-7 82 33 3 c30 3 34 6 34 33 0 25 -4
31 -27 33 -23 3 -27 8 -30 40 -3 34 -6 37 -36 40 -27 3 -34 -1 -42 -23z"/>
<path d="M2243 665 c-55 -24 -70 -85 -21 -85 13 0 34 9 48 20 32 25 52 25 75
0 27 -30 13 -45 -56 -58 -51 -9 -70 -18 -92 -43 -35 -38 -32 -81 9 -116 30
-27 104 -32 124 -8 16 19 30 19 45 -1 8 -12 20 -15 38 -10 l27 6 0 118 c0 90
-4 123 -16 140 -34 49 -115 66 -181 37z m117 -188 c0 -33 -32 -59 -67 -55 -62
7 -26 78 39 78 23 0 28 -4 28 -23z"/>
<path d="M2694 664 c-39 -19 -63 -61 -71 -122 -7 -61 9 -110 47 -147 40 -39
128 -46 177 -16 37 23 68 65 58 81 -11 18 -56 11 -87 -15 -36 -31 -50 -31 -83
-2 -20 16 -28 35 -32 68 -4 38 -1 50 22 77 32 39 43 39 91 7 36 -25 78 -33 88
-17 10 16 -35 73 -69 88 -44 18 -102 18 -141 -2z"/>
<path d="M2942 553 c4 -138 13 -165 58 -182 51 -19 58 -19 97 -1 34 15 42 15
58 4 10 -8 29 -14 42 -14 l23 0 0 160 0 160 -40 0 -40 0 0 -105 c0 -118 -13
-145 -70 -145 -42 0 -50 23 -50 144 l0 106 -41 0 -41 0 4 -127z"/>
<path d="M3470 663 c-45 -23 -66 -62 -44 -83 13 -13 21 -12 65 13 48 26 52 27
75 12 34 -22 32 -55 -3 -55 -81 0 -163 -53 -163 -105 0 -16 12 -38 29 -56 24
-24 38 -29 75 -29 31 0 52 6 64 18 18 18 19 18 42 0 12 -10 31 -18 43 -18 20
0 20 4 13 132 -6 123 -8 135 -31 157 -32 33 -115 40 -165 14z m120 -183 c0
-30 -37 -62 -68 -58 -37 4 -38 47 -2 65 39 20 70 17 70 -7z"/>
<path d="M3981 654 c-63 -53 -78 -136 -38 -214 30 -60 63 -82 126 -83 58 -1
91 18 129 73 41 60 25 166 -32 220 -21 19 -40 25 -89 28 -57 4 -66 2 -96 -24z
m132 -62 c37 -39 38 -112 2 -147 -32 -33 -58 -31 -89 6 -33 39 -36 104 -5 143
26 34 58 33 92 -2z"/>
<path d="M4263 528 c7 -159 10 -168 55 -168 21 0 22 3 22 98 0 110 11 136 60
147 30 7 49 42 35 64 -9 16 -47 13 -72 -4 -18 -13 -22 -13 -33 0 -7 8 -26 15
-43 15 l-30 0 6 -152z"/>
</g>
</svg>
